<?xml version="1.0" encoding="UTF-8"?>
<svg width="600" height="600" viewBox="0 0 600 600" xmlns="http://www.w3.org/2000/svg"><defs id="SvgjsDefs1141"></defs><g id="SvgjsG1142" featurekey="QMusi1-0" transform="scale(1)" fill="#64ee85"><g xmlns="http://www.w3.org/2000/svg" fill="#64ee85"><path d="M247.79 202.35v12.77a.32.32 0 0 1-.55.22l-44.49-44.49a.32.32 0 0 0-.46 0l-94.19 94.2a.32.32 0 0 1-.46 0l-6.32-6.31a.32.32 0 0 1 0-.46l101.04-101.04a.32.32 0 0 1 .46 0l7.08 7.08a.32.32 0 0 0 .46 0L259.68 115a.32.32 0 0 1 .46 0l49.31 49.31a.32.32 0 0 0 .46 0l6.87-6.87a.32.32 0 0 1 .46 0L418.2 258.4a.32.32 0 0 1 0 .46l-5.92 5.92a.32.32 0 0 1-.46 0l-94.24-94.24a.32.32 0 0 0-.46 0l-44.76 44.76a.32.32 0 0 1-.55-.22v-12.6a.32.32 0 0 1 .09-.22l33.05-33.05a.32.32 0 0 0 0-.46L260.19 124a.32.32 0 0 0-.46 0l-44.85 44.85a.32.32 0 0 0 0 .46l32.82 32.82a.32.32 0 0 1 .09.22"></path><path d="M203.09 201.39a.77.76 44.7 0 0-1.09 0l-78.65 78.65q-.31.3-.62 0l-5.99-6q-.15-.15 0-.29l83.41-82.99a3.59 3.58 45.1 0 1 5.06.01l42.3 42.3a1.13 1.11 22.9 0 1 .33.79v11.38q0 .9-.63.27zM316.78 201.7l-44.7 44.7a.16.16 0 0 1-.27-.11v-12.8q0-.31.22-.53l41.82-41.82a4.4 4.4 0 0 1 6.21-.01l83.32 82.6-.13.13-6.48 6.4q-.21.21-.41 0l-78.57-78.56a.71.71 0 0 0-1.01 0"></path><path d="M122.76 307.49q.37.37.74 0l79.68-79.68a.68.67 44.7 0 1 .95 0l54.82 54.83a.93.93 0 0 0 1.32 0l54.84-54.84a.67.66-44.7 0 1 .95 0l79.66 79.65a1.03 1.02-44.8 0 0 1.45 0l29.84-29.84a1.3 1.3 0 0 1 .92-.38h12.11q.55 0 .55.55v3.32q0 .42-.29.71L309.38 412.05a1.78 1.76-67.3 0 1-1.25.52h-15.66q-.88 0-.26-.63l95.14-95.14a.43.42-45.5 0 0 0-.61l-71.22-71.23a.85.83-44.8 0 0-1.18.01l-46.18 46.19a.53.52-45.4 0 0 0 .75l17.92 17.92a.35.35 0 0 0 .5 0l28.73-28.73a.46.46 0 0 1 .64 0l7.89 7.89q.28.29 0 .57l-28.52 28.52q-.45.45 0 .9l19.87 19.88a.69.69 0 0 0 .98 0l28.6-28.6q.38-.38.77 0l7.68 7.69q.41.41 0 .81l-93.77 93.77a.48.48 0 0 1-.68 0l-93.98-93.98a.45.44 45.4 0 1 0-.63l7.79-7.79a.61.6 44.7 0 1 .85 0l28.66 28.67a.59.59 0 0 0 .83 0l20.04-20.04a.59.59 0 0 0 0-.84l-28.38-28.38a.58.58 0 0 1 0-.82l7.48-7.48q.52-.52 1.04 0l28.4 28.41a.58.58 0 0 0 .82 0l17.74-17.74a.7.69-45.3 0 0 0-.99l-45.77-45.77a1.25 1.24 44.8 0 0-1.77 0l-70.83 70.82a.68.67-45.3 0 0 0 .95l95.02 95.01a.36.36 0 0 1-.25.61h-16q-.56 0-.96-.4l-130.3-130.3a1.26 1.22-68.1 0 1-.36-.88v-3.2q0-.54.54-.54h12.07a1.06 1.06 0 0 1 .75.31zm155.379 11.562a.67.67 0 0 0-.002-.948l-17.935-17.873a.67.67 0 0 0-.948.002l-17.873 17.935a.67.67 0 0 0 .002.948l17.935 17.873a.67.67 0 0 0 .948-.002zm-27.32 27.245a.63.63 0 0 0-.002-.89l-18.09-18.029a.63.63 0 0 0-.892.002l-19.694 19.763a.63.63 0 0 0 .002.89l18.09 18.029a.63.63 0 0 0 .892-.002zm56.55 1.663a.6.6 0 0 0-.001-.848l-19.777-19.708a.6.6 0 0 0-.849.001l-17.971 18.035a.6.6 0 0 0 .001.848l19.777 19.708a.6.6 0 0 0 .849-.001zm-27.127 27.217a.47.47 0 0 0 0-.665l-20.075-20.004a.47.47 0 0 0-.665 0l-20.004 20.075a.47.47 0 0 0 0 .665l20.075 20.004a.47.47 0 0 0 .665 0z"></path></g></g></svg>