<?xml version="1.0" encoding="UTF-8"?>
<!DOCTYPE svg PUBLIC "-//W3C//DTD SVG 1.1//EN" "http://www.w3.org/Graphics/SVG/1.1/DTD/svg11.dtd">
<svg xmlns="http://www.w3.org/2000/svg" version="1.1" width="1000px" height="213px" style="shape-rendering:geometricPrecision; text-rendering:geometricPrecision; image-rendering:optimizeQuality; fill-rule:evenodd; clip-rule:evenodd" xmlns:xlink="http://www.w3.org/1999/xlink">
<g><path style="opacity:0.973" fill="#efa324" d="M 188.5,72.5 C 187.778,72.9175 187.278,73.5842 187,74.5C 186.084,80.8325 185.25,87.1659 184.5,93.5C 183.687,102.19 182.687,110.857 181.5,119.5C 174.401,120.81 167.401,120.81 160.5,119.5C 161.687,110.855 162.687,102.189 163.5,93.5C 164.117,93.3893 164.617,93.056 165,92.5C 165.944,85.838 166.777,79.1713 167.5,72.5C 168.276,62.1654 170.443,52.1654 174,42.5C 179.61,37.8813 186.11,36.2147 193.5,37.5C 191.74,49.1528 190.073,60.8195 188.5,72.5 Z"/></g>
<g><path style="opacity:0.978" fill="#0dad4a" d="M 141.5,72.5 C 134.5,73.8333 127.5,73.8333 120.5,72.5C 121.039,56.9606 129.039,49.9606 144.5,51.5C 143.593,58.5139 142.593,65.5139 141.5,72.5 Z"/></g>
<g><path style="opacity:0.91" fill="#fefffe" d="M 528.5,71.5 C 560.228,74.3963 574.728,91.7296 572,123.5C 568.235,141.533 557.402,152.699 539.5,157C 518.039,160.186 502.206,152.353 492,133.5C 483.404,110.018 489.238,91.185 509.5,77C 515.645,74.0519 521.978,72.2185 528.5,71.5 Z M 524.5,80.5 C 545.11,79.2157 557.943,88.549 563,108.5C 564.686,123.958 559.186,136.125 546.5,145C 529.917,152.813 515.751,149.647 504,135.5C 493.183,115.922 496.35,99.0891 513.5,85C 517.157,83.1776 520.824,81.6776 524.5,80.5 Z"/></g>
<g><path style="opacity:0.904" fill="#fefffe" d="M 825.5,71.5 C 837.638,71.4883 848.304,75.3217 857.5,83C 855.954,85.2568 854.288,87.4235 852.5,89.5C 838.548,79.0807 823.881,77.914 808.5,86C 791.699,102.514 790.199,120.347 804,139.5C 820.853,153.033 837.519,152.7 854,138.5C 856.613,140.401 858.28,142.735 859,145.5C 847.188,156.247 833.354,160.081 817.5,157C 792.927,148.723 782.427,131.556 786,105.5C 791.379,84.9448 804.545,73.6114 825.5,71.5 Z"/></g>
<g><path style="opacity:0.9" fill="#fefffe" d="M 897.5,71.5 C 906.762,71.3622 914.762,74.3622 921.5,80.5C 920.557,83.4001 918.89,85.7334 916.5,87.5C 906.128,78.84 895.628,78.5066 885,86.5C 880.354,94.8578 882.188,101.358 890.5,106C 900.051,109.73 909.051,114.396 917.5,120C 926.287,132.492 924.954,143.825 913.5,154C 900.881,159.132 888.548,158.466 876.5,152C 870.068,148.374 870.068,144.54 876.5,140.5C 883.738,146.635 892.071,149.468 901.5,149C 913.311,145.551 916.478,138.384 911,127.5C 909.442,125.641 907.609,124.141 905.5,123C 897.29,119.377 889.29,115.377 881.5,111C 869.577,99.7894 869.577,88.456 881.5,77C 886.586,74.028 891.919,72.1947 897.5,71.5 Z"/></g>
<g><path style="opacity:0.935" fill="#d62128" d="M 188.5,72.5 C 201.167,72.5 213.833,72.5 226.5,72.5C 227.117,83.1371 222.45,89.9705 212.5,93C 203.173,93.4998 193.839,93.6665 184.5,93.5C 185.25,87.1659 186.084,80.8325 187,74.5C 187.278,73.5842 187.778,72.9175 188.5,72.5 Z"/></g>
<g><path style="opacity:0.967" fill="#fefffe" d="M 244.5,72.5 C 260.833,72.5 277.167,72.5 293.5,72.5C 293.5,77.1667 293.5,81.8333 293.5,86.5C 282.5,86.5 271.5,86.5 260.5,86.5C 260.5,94.1667 260.5,101.833 260.5,109.5C 269.833,109.5 279.167,109.5 288.5,109.5C 288.5,113.833 288.5,118.167 288.5,122.5C 279.167,122.5 269.833,122.5 260.5,122.5C 260.5,133.833 260.5,145.167 260.5,156.5C 255.167,156.5 249.833,156.5 244.5,156.5C 244.5,128.5 244.5,100.5 244.5,72.5 Z"/></g>
<g><path style="opacity:0.955" fill="#fefffe" d="M 307.5,72.5 C 312.833,72.5 318.167,72.5 323.5,72.5C 323.5,100.5 323.5,128.5 323.5,156.5C 318.167,156.5 312.833,156.5 307.5,156.5C 307.5,128.5 307.5,100.5 307.5,72.5 Z"/></g>
<g><path style="opacity:0.937" fill="#fefffe" d="M 337.5,73.5 C 343.678,72.1826 350.012,72.1826 356.5,73.5C 361.92,82.6724 367.087,92.0057 372,101.5C 377.374,91.9182 382.874,82.4182 388.5,73C 394.528,72.1697 400.528,72.3364 406.5,73.5C 398.367,86.9337 390.367,100.434 382.5,114C 390.952,127.734 399.286,141.567 407.5,155.5C 401.528,156.664 395.528,156.83 389.5,156C 383.54,145.915 377.707,135.748 372,125.5C 366.566,135.924 360.733,146.091 354.5,156C 348.5,156.667 342.5,156.667 336.5,156C 345.167,142 353.833,128 362.5,114C 354.267,100.352 345.933,86.8523 337.5,73.5 Z"/></g>
<g><path style="opacity:0.973" fill="#d52229" d="M 120.5,72.5 C 127.5,73.8333 134.5,73.8333 141.5,72.5C 150.167,72.5 158.833,72.5 167.5,72.5C 166.777,79.1713 165.944,85.838 165,92.5C 164.617,93.056 164.117,93.3893 163.5,93.5C 141.823,93.833 120.156,93.4997 98.5,92.5C 99.1859,78.4795 106.519,71.8128 120.5,72.5 Z"/></g>
<g><path style="opacity:0.933" fill="#fefffe" d="M 422.5,73.5 C 434.505,73.3335 446.505,73.5001 458.5,74C 474.18,79.8553 480.013,91.022 476,107.5C 472.729,117.39 465.896,122.89 455.5,124C 447.507,124.5 439.507,124.666 431.5,124.5C 431.5,135.167 431.5,145.833 431.5,156.5C 428.5,156.5 425.5,156.5 422.5,156.5C 422.5,128.833 422.5,101.167 422.5,73.5 Z M 431.5,81.5 C 439.174,81.3336 446.841,81.5003 454.5,82C 465.521,85.5327 469.688,93.0327 467,104.5C 464.305,111.604 459.138,115.437 451.5,116C 444.842,116.5 438.175,116.666 431.5,116.5C 431.5,104.833 431.5,93.1667 431.5,81.5 Z"/></g>
<g><path style="opacity:0.951" fill="#fefffe" d="M 591.5,73.5 C 594.5,73.5 597.5,73.5 600.5,73.5C 600.5,98.5 600.5,123.5 600.5,148.5C 613.167,148.5 625.833,148.5 638.5,148.5C 638.5,151.167 638.5,153.833 638.5,156.5C 622.833,156.5 607.167,156.5 591.5,156.5C 591.5,128.833 591.5,101.167 591.5,73.5 Z"/></g>
<g><path style="opacity:0.94" fill="#fefffe" d="M 653.5,73.5 C 656.5,73.5 659.5,73.5 662.5,73.5C 662.5,101.167 662.5,128.833 662.5,156.5C 659.5,156.5 656.5,156.5 653.5,156.5C 653.5,128.833 653.5,101.167 653.5,73.5 Z"/></g>
<g><path style="opacity:0.948" fill="#fefffe" d="M 675.5,73.5 C 698.5,73.5 721.5,73.5 744.5,73.5C 744.5,76.1667 744.5,78.8333 744.5,81.5C 734.5,81.5 724.5,81.5 714.5,81.5C 714.5,106.5 714.5,131.5 714.5,156.5C 711.5,156.5 708.5,156.5 705.5,156.5C 705.5,131.5 705.5,106.5 705.5,81.5C 695.5,81.5 685.5,81.5 675.5,81.5C 675.5,78.8333 675.5,76.1667 675.5,73.5 Z"/></g>
<g><path style="opacity:0.942" fill="#fefffe" d="M 757.5,73.5 C 760.5,73.5 763.5,73.5 766.5,73.5C 766.5,101.167 766.5,128.833 766.5,156.5C 763.5,156.5 760.5,156.5 757.5,156.5C 757.5,128.833 757.5,101.167 757.5,73.5 Z"/></g>
<g><path style="opacity:0.97" fill="#0cad4c" d="M 134.5,119.5 C 133.012,123.857 131.679,128.357 130.5,133C 124.175,133.5 117.842,133.666 111.5,133.5C 111.846,128.784 112.513,124.117 113.5,119.5C 114.874,111.549 115.874,103.549 116.5,95.5C 123.5,95.5 130.5,95.5 137.5,95.5C 136.687,103.525 135.687,111.525 134.5,119.5 Z"/></g>
<g><path style="opacity:0.974" fill="#109ad5" d="M 113.5,119.5 C 112.513,124.117 111.846,128.784 111.5,133.5C 117.842,133.666 124.175,133.5 130.5,133C 131.679,128.357 133.012,123.857 134.5,119.5C 143.167,119.5 151.833,119.5 160.5,119.5C 167.401,120.81 174.401,120.81 181.5,119.5C 189.174,119.334 196.841,119.5 204.5,120C 203.485,124.423 202.652,128.923 202,133.5C 201.654,135.848 200.487,137.681 198.5,139C 176.22,140.457 153.886,140.957 131.5,140.5C 124.401,139.19 117.401,139.19 110.5,140.5C 98.8333,140.5 87.1667,140.5 75.5,140.5C 75.9698,133.972 77.6364,127.806 80.5,122C 81.8333,121.333 83.1667,120.667 84.5,120C 94.1609,119.5 103.828,119.334 113.5,119.5 Z"/></g>
<g><path style="opacity:0.979" fill="#0cae4b" d="M 131.5,140.5 C 130.016,147.066 128.85,153.733 128,160.5C 124.706,172.571 116.872,177.071 104.5,174C 106.637,162.88 108.637,151.714 110.5,140.5C 117.401,139.19 124.401,139.19 131.5,140.5 Z"/></g>
<g><path style="opacity:0.955" fill="#f1a422" d="M 156.5,141.5 C 163.5,141.5 170.5,141.5 177.5,141.5C 177.214,148.338 176.048,155.004 174,161.5C 171.806,164.181 168.973,165.681 165.5,166C 161.514,166.499 157.514,166.666 153.5,166.5C 154.609,158.178 155.609,149.845 156.5,141.5 Z"/></g>
</svg>
