<?xml version="1.0" encoding="UTF-8"?>
<svg id="Layer_1" data-name="Layer 1" xmlns="http://www.w3.org/2000/svg" xmlns:xlink="http://www.w3.org/1999/xlink" viewBox="0 0 1000 1000">
  <defs>
    <style>
      .cls-1 {
        clip-path: url(#clippath-4);
      }

      .cls-2 {
        fill: #069ad7;
      }

      .cls-3 {
        fill: #0cae4b;
      }

      .cls-4 {
        fill: none;
      }

      .cls-5 {
        clip-path: url(#clippath-1);
      }

      .cls-6 {
        clip-path: url(#clippath-3);
      }

      .cls-7 {
        clip-path: url(#clippath-2);
      }

      .cls-8 {
        fill: #d62029;
      }

      .cls-9 {
        fill: #f1a423;
      }

      .cls-10 {
        clip-path: url(#clippath);
      }
    </style>
    <clipPath id="clippath">
      <path d="M431.38,438.57h19.43c10.89,0,18.03,6.44,18.03,17.56s-7.14,17.91-18.14,17.91h-19.31v-35.46ZM423.31,431.31v82.28h8.07v-32.3h20.37c14.75,0,25.4-9.83,25.4-25.17s-10.65-24.81-25.4-24.81h-28.44ZM592.6,431.31v82.28h46.23v-7.26h-38.16v-75.03h-8.08ZM654.66,513.59h8.08v-82.28h-8.08v82.28ZM676.92,431.31v7.26h29.61v75.03h8.08v-75.03h29.5v-7.26h-67.18ZM758.28,513.59h8.08v-82.28h-8.08v82.28ZM245.45,430.49v83.1h15.1v-33.59h27.51v-12.99h-27.51v-23.53h32.66v-12.99h-47.75ZM308.8,513.59h15.1v-83.1h-15.1v83.1ZM389.58,430.49l-11.59,20.37c-2.69,4.92-5.03,10.18-5.03,10.18h-.23s-2.57-5.38-5.27-10.18l-11.35-20.37h-17.2l24.81,40.97-25.87,42.14h16.85l12.76-22.35c2.81-4.8,5.15-9.83,5.15-9.83h.23s2.46,5.03,5.15,9.83l12.88,22.35h16.97l-25.98-42.14,25.05-40.97h-17.32ZM497.54,471.93c0-19.66,14.86-34.53,33.48-34.53s33.47,14.86,33.47,34.53-14.98,35.58-33.47,35.58-33.48-15.45-33.48-35.58M489.11,471.93c0,24.11,18.61,43.07,41.9,43.07s41.9-18.96,41.9-43.07-18.61-42.02-41.9-42.02-41.9,18.38-41.9,42.02M786.16,471.93c0,23.99,17.32,43.07,41.67,43.07,20.25,0,31.49-12.76,31.49-12.76l-4.68-5.74s-10.06,11-26.69,11c-19.55,0-33.36-16.04-33.36-35.7s13.81-34.41,33.12-34.41c15.45,0,25.05,9.13,25.05,9.13l4.33-5.97s-9.95-10.65-29.61-10.65c-23.53,0-41.32,18.14-41.32,42.02M873.85,452.03c0,25.52,41.08,20.25,41.08,40.97,0,8.89-7.37,14.28-16.39,14.28-12.99,0-21.54-9.01-21.54-9.01l-4.8,6.2s9.25,10.53,26.1,10.53c15.45,0,24.93-9.95,24.93-22.24,0-27.04-41.08-21.42-41.08-40.96,0-7.26,6.79-14.16,17.32-14.16s18.03,7.02,18.03,7.02l3.98-6.79-.02-.02c-.47-.47-8.15-7.94-21.98-7.94-15.22,0-25.63,10.3-25.63,22.12"/>
    </clipPath>
    <clipPath id="clippath-1">
      <path class="cls-4" d="M118.07,453.33l-6.65,43.93-.03.2-5.43,34.33h6.79c7.47,0,13.83-5.43,15-12.81l3.42-21.62,6.66-44.04h-19.75ZM137.76,409.57c-7.51,0-13.89,5.49-15.01,12.91l-4.24,27.92h19.76l6.19-40.83h-6.7Z"/>
    </clipPath>
    <clipPath id="clippath-2">
      <path class="cls-4" d="M157.88,499.92l-3.41,23.16h11.04c5.01,0,9.27-3.67,10.01-8.63l2.16-14.53h-19.81ZM186.89,395.02c-7.47,0-13.83,5.43-15,12.81l-3.56,22.52-.05.32-3.14,19.86-.98,6.64-5.88,39.96h19.82l5.97-39.91,3.97-26.56.69-4.33,4.96-31.31h-6.79Z"/>
    </clipPath>
    <clipPath id="clippath-3">
      <path class="cls-4" d="M115.82,430.96c-7.45.02-13.79,5.44-14.96,12.8l-1.06,6.65h40.84l69.82-.18c7.45-.02,13.79-5.45,14.96-12.81l1.07-6.74-110.67.28Z"/>
    </clipPath>
    <clipPath id="clippath-4">
      <path class="cls-4" d="M87.68,477.75c-4.54,0-8.4,3.37-9.11,7.93l-1.81,11.6,118.18-.24c3.49,0,6.46-2.59,7.01-6.1l2.09-13.43-116.36.23Z"/>
    </clipPath>
  </defs>
  <g>
    <path d="M431.38,438.57h19.43c10.89,0,18.03,6.44,18.03,17.56s-7.14,17.91-18.14,17.91h-19.31v-35.46ZM423.31,431.31v82.28h8.07v-32.3h20.37c14.75,0,25.4-9.83,25.4-25.17s-10.65-24.81-25.4-24.81h-28.44ZM592.6,431.31v82.28h46.23v-7.26h-38.16v-75.03h-8.08ZM654.66,513.59h8.08v-82.28h-8.08v82.28ZM676.92,431.31v7.26h29.61v75.03h8.08v-75.03h29.5v-7.26h-67.18ZM758.28,513.59h8.08v-82.28h-8.08v82.28ZM245.45,430.49v83.1h15.1v-33.59h27.51v-12.99h-27.51v-23.53h32.66v-12.99h-47.75ZM308.8,513.59h15.1v-83.1h-15.1v83.1ZM389.58,430.49l-11.59,20.37c-2.69,4.92-5.03,10.18-5.03,10.18h-.23s-2.57-5.38-5.27-10.18l-11.35-20.37h-17.2l24.81,40.97-25.87,42.14h16.85l12.76-22.35c2.81-4.8,5.15-9.83,5.15-9.83h.23s2.46,5.03,5.15,9.83l12.88,22.35h16.97l-25.98-42.14,25.05-40.97h-17.32ZM497.54,471.93c0-19.66,14.86-34.53,33.48-34.53s33.47,14.86,33.47,34.53-14.98,35.58-33.47,35.58-33.48-15.45-33.48-35.58M489.11,471.93c0,24.11,18.61,43.07,41.9,43.07s41.9-18.96,41.9-43.07-18.61-42.02-41.9-42.02-41.9,18.38-41.9,42.02M786.16,471.93c0,23.99,17.32,43.07,41.67,43.07,20.25,0,31.49-12.76,31.49-12.76l-4.68-5.74s-10.06,11-26.69,11c-19.55,0-33.36-16.04-33.36-35.7s13.81-34.41,33.12-34.41c15.45,0,25.05,9.13,25.05,9.13l4.33-5.97s-9.95-10.65-29.61-10.65c-23.53,0-41.32,18.14-41.32,42.02M873.85,452.03c0,25.52,41.08,20.25,41.08,40.97,0,8.89-7.37,14.28-16.39,14.28-12.99,0-21.54-9.01-21.54-9.01l-4.8,6.2s9.25,10.53,26.1,10.53c15.45,0,24.93-9.95,24.93-22.24,0-27.04-41.08-21.42-41.08-40.96,0-7.26,6.79-14.16,17.32-14.16s18.03,7.02,18.03,7.02l3.98-6.79-.02-.02c-.47-.47-8.15-7.94-21.98-7.94-15.22,0-25.63,10.3-25.63,22.12"/>
    <g class="cls-10">
      <rect x="202.45" y="386.91" width="763.79" height="171.09"/>
    </g>
  </g>
  <g class="cls-5">
    <rect class="cls-3" x="62.95" y="366.57" width="124.51" height="208.22"/>
  </g>
  <g class="cls-7">
    <rect class="cls-9" x="111.47" y="352.02" width="125.21" height="214.07"/>
  </g>
  <g class="cls-6">
    <rect class="cls-8" x="100.49" y="336.53" width="125.3" height="208.04" transform="translate(-297.5 532.76) rotate(-81)"/>
  </g>
  <g class="cls-1">
    <polygon class="cls-2" points="233.08 565.99 252.43 441.77 47.72 408.81 28.37 533.03 233.08 565.99"/>
  </g>
  <polygon class="cls-3" points="111.38 490.83 131.16 490.76 134.3 477.41 114.59 477.2 111.38 490.83"/>
  <polygon class="cls-9" points="168.99 426.32 164.16 457.16 184.07 457.22 188.73 426.32 168.99 426.32"/>
</svg>