<?xml version="1.0" encoding="UTF-8"?>
<!DOCTYPE svg PUBLIC "-//W3C//DTD SVG 1.1//EN" "http://www.w3.org/Graphics/SVG/1.1/DTD/svg11.dtd">
<svg xmlns="http://www.w3.org/2000/svg" version="1.1" width="720px" height="156px" style="shape-rendering:geometricPrecision; text-rendering:geometricPrecision; image-rendering:optimizeQuality; fill-rule:evenodd; clip-rule:evenodd" xmlns:xlink="http://www.w3.org/1999/xlink">
<g><path style="opacity:0.806" fill="#4c4d4c" d="M 164.5,10.5 C 165.496,10.4142 166.329,10.7476 167,11.5C 167.667,57.8333 167.667,104.167 167,150.5C 166,151.833 165,151.833 164,150.5C 163.172,103.763 163.339,57.0959 164.5,10.5 Z"/></g>
<g><path style="opacity:0.959" fill="#f05a23" d="M 79.5,12.5 C 99.4286,30.7608 118.762,49.7608 137.5,69.5C 99.1667,70.8333 60.8333,70.8333 22.5,69.5C 41.8273,50.8394 60.8273,31.8394 79.5,12.5 Z"/></g>
<g><path style="opacity:0.904" fill="#4c4d4c" d="M 458.5,43.5 C 461.5,43.5 464.5,43.5 467.5,43.5C 467.5,70.8333 467.5,98.1667 467.5,125.5C 464.833,125.5 462.167,125.5 459.5,125.5C 459.664,122.813 459.497,120.146 459,117.5C 453.26,125.531 445.427,128.698 435.5,127C 426.14,125.309 420.307,119.809 418,110.5C 414.989,97.3115 416.322,84.6449 422,72.5C 431.393,63.8079 441.893,62.3079 453.5,68C 455,69.5 456.5,71 458,72.5C 458.5,62.8391 458.666,53.1724 458.5,43.5 Z M 439.5,72.5 C 445.944,72.0653 451.11,74.3986 455,79.5C 459.667,90.5 459.667,101.5 455,112.5C 447.871,120.354 439.871,121.354 431,115.5C 423.552,102.216 423.718,89.0494 431.5,76C 434.158,74.522 436.825,73.3554 439.5,72.5 Z"/></g>
<g><path style="opacity:0.932" fill="#4c4d4c" d="M 204.5,48.5 C 209.5,48.5 214.5,48.5 219.5,48.5C 226.979,69.4685 234.479,90.4685 242,111.5C 249.667,90.8333 257.333,70.1667 265,49.5C 270.072,48.5286 275.238,48.1953 280.5,48.5C 280.5,74.1667 280.5,99.8333 280.5,125.5C 277.167,125.5 273.833,125.5 270.5,125.5C 270.667,104.497 270.5,83.4974 270,62.5C 262.726,82.9887 255.06,103.322 247,123.5C 245.647,124.704 243.981,125.371 242,125.5C 238.869,125.716 236.869,124.383 236,121.5C 228.389,101.943 221.055,82.276 214,62.5C 213.5,83.4974 213.333,104.497 213.5,125.5C 210.5,125.5 207.5,125.5 204.5,125.5C 204.5,99.8333 204.5,74.1667 204.5,48.5 Z"/></g>
<g><path style="opacity:0.897" fill="#4c4d4c" d="M 545.5,49.5 C 548.167,49.5 550.833,49.5 553.5,49.5C 553.5,54.8333 553.5,60.1667 553.5,65.5C 557.167,65.5 560.833,65.5 564.5,65.5C 564.5,68.1667 564.5,70.8333 564.5,73.5C 560.833,73.5 557.167,73.5 553.5,73.5C 553.167,88.5148 553.501,103.515 554.5,118.5C 557.758,119.417 561.091,119.751 564.5,119.5C 564.756,121.792 564.423,123.959 563.5,126C 558.484,127.921 553.484,127.921 548.5,126C 546.951,124.786 545.785,123.286 545,121.5C 544.5,105.503 544.333,89.5035 544.5,73.5C 541.833,73.5 539.167,73.5 536.5,73.5C 536.5,70.8333 536.5,68.1667 536.5,65.5C 539.167,65.5 541.833,65.5 544.5,65.5C 544.687,60.1554 545.02,54.8221 545.5,49.5 Z"/></g>
<g><path style="opacity:0.923" fill="#f05a23" d="M 663.5,52.5 C 669.206,52.1712 674.872,52.5046 680.5,53.5C 675.626,70.7458 667.96,86.5791 657.5,101C 663.825,101.5 670.158,101.666 676.5,101.5C 676.334,95.1579 676.5,88.8246 677,82.5C 680.628,76.5829 683.128,70.2496 684.5,63.5C 687.5,63.5 690.5,63.5 693.5,63.5C 693.5,76.1667 693.5,88.8333 693.5,101.5C 696.833,101.5 700.167,101.5 703.5,101.5C 703.5,106.167 703.5,110.833 703.5,115.5C 700.167,115.5 696.833,115.5 693.5,115.5C 693.5,120.833 693.5,126.167 693.5,131.5C 687.833,131.5 682.167,131.5 676.5,131.5C 676.5,126.167 676.5,120.833 676.5,115.5C 665.167,115.5 653.833,115.5 642.5,115.5C 642.334,110.489 642.501,105.489 643,100.5C 652.27,85.5179 659.103,69.5179 663.5,52.5 Z"/></g>
<g><path style="opacity:0.886" fill="#4c4d4c" d="M 313.5,64.5 C 319.232,64.2832 324.899,64.7832 330.5,66C 337.682,68.1812 341.515,73.0146 342,80.5C 342.333,93.1667 342.667,105.833 343,118.5C 345.041,119.423 347.208,119.756 349.5,119.5C 350.746,125.256 348.412,127.923 342.5,127.5C 336.74,127.36 333.573,124.36 333,118.5C 323.617,127.551 312.783,129.718 300.5,125C 295.531,121.737 292.864,117.07 292.5,111C 293.591,99.59 299.924,93.2567 311.5,92C 318.453,90.8367 325.453,90.3367 332.5,90.5C 332.666,86.4862 332.499,82.4862 332,78.5C 330.52,75.3374 328.02,73.504 324.5,73C 319.411,72.1743 314.411,72.5076 309.5,74C 305.827,76.5131 304.161,80.0131 304.5,84.5C 301.5,84.5 298.5,84.5 295.5,84.5C 295.54,72.4601 301.54,65.7935 313.5,64.5 Z M 326.5,97.5 C 328.5,97.5 330.5,97.5 332.5,97.5C 332.829,113 325.163,120.166 309.5,119C 302.127,115.641 300.627,110.475 305,103.5C 311.79,99.7826 318.957,97.7826 326.5,97.5 Z"/></g>
<g><path style="opacity:0.9" fill="#4c4d4c" d="M 380.5,64.5 C 386.865,63.9013 392.865,65.0679 398.5,68C 400.378,69.5429 401.878,71.3762 403,73.5C 404.458,90.7639 404.958,108.097 404.5,125.5C 401.5,125.5 398.5,125.5 395.5,125.5C 395.667,110.496 395.5,95.4963 395,80.5C 392.94,75.124 388.94,72.4574 383,72.5C 375.206,73.3803 369.873,77.3803 367,84.5C 365.594,98.1154 365.094,111.782 365.5,125.5C 362.5,125.5 359.5,125.5 356.5,125.5C 356.5,105.5 356.5,85.5 356.5,65.5C 359.167,65.5 361.833,65.5 364.5,65.5C 364.335,68.5184 364.502,71.5184 365,74.5C 368.9,68.98 374.067,65.6466 380.5,64.5 Z"/></g>
<g><path style="opacity:0.886" fill="#4c4d4c" d="M 498.5,64.5 C 504.232,64.2832 509.899,64.7832 515.5,66C 522.682,68.1812 526.515,73.0146 527,80.5C 527.333,93.1667 527.667,105.833 528,118.5C 530.041,119.423 532.208,119.756 534.5,119.5C 535.746,125.256 533.412,127.923 527.5,127.5C 521.74,127.36 518.573,124.36 518,118.5C 508.617,127.551 497.783,129.718 485.5,125C 480.531,121.737 477.864,117.07 477.5,111C 478.591,99.59 484.924,93.2567 496.5,92C 503.453,90.8367 510.453,90.3367 517.5,90.5C 517.666,86.4862 517.499,82.4862 517,78.5C 515.52,75.3374 513.02,73.504 509.5,73C 504.411,72.1743 499.411,72.5076 494.5,74C 490.827,76.5131 489.161,80.0131 489.5,84.5C 486.5,84.5 483.5,84.5 480.5,84.5C 480.54,72.4601 486.54,65.7935 498.5,64.5 Z M 511.5,97.5 C 513.5,97.5 515.5,97.5 517.5,97.5C 517.829,113 510.163,120.166 494.5,119C 487.127,115.641 485.627,110.475 490,103.5C 496.79,99.7826 503.957,97.7826 511.5,97.5 Z"/></g>
<g><path style="opacity:0.906" fill="#4c4d4c" d="M 592.5,64.5 C 616.244,63.2402 626.91,74.5736 624.5,98.5C 609.818,98.1674 595.152,98.5007 580.5,99.5C 583.079,118.292 593.079,123.792 610.5,116C 613.373,113.087 614.706,109.587 614.5,105.5C 617.5,105.5 620.5,105.5 623.5,105.5C 622.164,120.491 613.83,127.825 598.5,127.5C 583.011,127.511 574.178,119.845 572,104.5C 570.247,93.5748 571.913,83.2414 577,73.5C 581.274,68.7854 586.441,65.7854 592.5,64.5 Z M 593.5,72.5 C 607.81,70.8142 614.81,77.1475 614.5,91.5C 603.162,91.6665 591.828,91.4999 580.5,91C 580.815,81.8733 585.149,75.7066 593.5,72.5 Z"/></g>
<g><path style="opacity:0.949" fill="#4c4d4c" d="M 29.5,74.5 C 33.5,74.5 37.5,74.5 41.5,74.5C 41.5,91.8333 41.5,109.167 41.5,126.5C 37.5,126.5 33.5,126.5 29.5,126.5C 29.5,109.167 29.5,91.8333 29.5,74.5 Z"/></g>
<g><path style="opacity:0.929" fill="#4c4d4c" d="M 58.5,74.5 C 62.5,74.5 66.5,74.5 70.5,74.5C 70.5,91.8333 70.5,109.167 70.5,126.5C 66.5,126.5 62.5,126.5 58.5,126.5C 58.5,109.167 58.5,91.8333 58.5,74.5 Z"/></g>
<g><path style="opacity:0.876" fill="#4c4d4c" d="M 89.5,74.5 C 93.8333,74.5 98.1667,74.5 102.5,74.5C 102.5,91.8333 102.5,109.167 102.5,126.5C 98.1667,126.5 93.8333,126.5 89.5,126.5C 89.5,109.167 89.5,91.8333 89.5,74.5 Z"/></g>
<g><path style="opacity:0.876" fill="#4c4d4c" d="M 117.5,74.5 C 121.833,74.5 126.167,74.5 130.5,74.5C 130.5,91.8333 130.5,109.167 130.5,126.5C 126.167,126.5 121.833,126.5 117.5,126.5C 117.5,109.167 117.5,91.8333 117.5,74.5 Z"/></g>
<g><path style="opacity:0.911" fill="#4c4d4c" d="M 22.5,134.5 C 60.8333,134.5 99.1667,134.5 137.5,134.5C 137.5,137.5 137.5,140.5 137.5,143.5C 99.1667,143.5 60.8333,143.5 22.5,143.5C 22.5,140.5 22.5,137.5 22.5,134.5 Z"/></g>
</svg>
