<?xml version="1.0" encoding="UTF-8"?>
<!DOCTYPE svg PUBLIC "-//W3C//DTD SVG 1.1//EN" "http://www.w3.org/Graphics/SVG/1.1/DTD/svg11.dtd">
<svg xmlns="http://www.w3.org/2000/svg" version="1.1" width="1000px" height="216px" style="shape-rendering:geometricPrecision; text-rendering:geometricPrecision; image-rendering:optimizeQuality; fill-rule:evenodd; clip-rule:evenodd" xmlns:xlink="http://www.w3.org/1999/xlink">
<g><path style="opacity:0.771" fill="#fefffe" d="M 253.5,15.5 C 255.144,15.2865 256.644,15.6198 258,16.5C 258.667,73.8333 258.667,131.167 258,188.5C 256.667,189.833 255.333,189.833 254,188.5C 253.5,130.834 253.333,73.1676 253.5,15.5 Z"/></g>
<g><path style="opacity:0.965" fill="#f15a27" d="M 149.5,17.5 C 173.632,41.1317 197.632,64.9651 221.5,89C 173.83,89.8333 126.163,89.6666 78.5,88.5C 102.494,65.1727 126.161,41.5061 149.5,17.5 Z"/></g>
<g><path style="opacity:0.905" fill="#fefffe" d="M 617.5,57.5 C 621.167,57.5 624.833,57.5 628.5,57.5C 628.5,91.1667 628.5,124.833 628.5,158.5C 625.5,158.5 622.5,158.5 619.5,158.5C 619.905,154.952 619.405,151.619 618,148.5C 612.679,156.347 605.179,160.347 595.5,160.5C 581.057,160.366 571.891,153.366 568,139.5C 566,127.5 566,115.5 568,103.5C 571.741,89.7906 580.741,82.7906 595,82.5C 603.959,82.3706 611.293,85.7039 617,92.5C 617.5,80.8381 617.667,69.1714 617.5,57.5 Z M 593.5,92.5 C 607.474,91.3118 615.307,97.6451 617,111.5C 618.322,121.778 617.322,131.778 614,141.5C 606.133,151.086 596.633,152.919 585.5,147C 581.001,142.834 578.501,137.667 578,131.5C 576.94,122.021 577.607,112.688 580,103.5C 582.616,97.3723 587.116,93.7057 593.5,92.5 Z"/></g>
<g><path style="opacity:0.9" fill="#fefffe" d="M 303.5,62.5 C 309.537,62.1707 315.537,62.5041 321.5,63.5C 331.692,89.2427 341.192,115.243 350,141.5C 359.457,115.467 369.124,89.4673 379,63.5C 385.076,62.5236 391.242,62.1903 397.5,62.5C 397.5,94.5 397.5,126.5 397.5,158.5C 393.5,158.5 389.5,158.5 385.5,158.5C 385.667,131.831 385.5,105.165 385,78.5C 375.431,105.297 365.598,131.964 355.5,158.5C 351.833,158.5 348.167,158.5 344.5,158.5C 334.379,131.639 324.545,104.639 315,77.5C 315.384,104.485 315.55,131.485 315.5,158.5C 311.5,158.5 307.5,158.5 303.5,158.5C 303.5,126.5 303.5,94.5 303.5,62.5 Z"/></g>
<g><path style="opacity:0.907" fill="#fefffe" d="M 726.5,64.5 C 729.5,64.5 732.5,64.5 735.5,64.5C 735.5,71.1667 735.5,77.8333 735.5,84.5C 740.5,84.5 745.5,84.5 750.5,84.5C 750.5,87.5 750.5,90.5 750.5,93.5C 745.5,93.5 740.5,93.5 735.5,93.5C 735.067,111.88 735.567,130.214 737,148.5C 737.5,149 738,149.5 738.5,150C 742.486,150.499 746.486,150.666 750.5,150.5C 750.768,153.119 750.435,155.619 749.5,158C 741.97,161.795 734.803,161.295 728,156.5C 727.333,155.167 726.667,153.833 726,152.5C 724.576,132.874 724.076,113.207 724.5,93.5C 721.5,93.5 718.5,93.5 715.5,93.5C 715.5,90.5 715.5,87.5 715.5,84.5C 718.833,84.5 722.167,84.5 725.5,84.5C 725.713,77.8259 726.046,71.1593 726.5,64.5 Z"/></g>
<g><path style="opacity:0.952" fill="#f15a27" d="M 871.5,67.5 C 878.5,67.5 885.5,67.5 892.5,67.5C 886.977,89.711 877.31,109.878 863.5,128C 871.827,128.5 880.16,128.666 888.5,128.5C 888.334,120.493 888.5,112.493 889,104.5C 893.017,96.8047 896.184,88.8047 898.5,80.5C 901.833,80.5 905.167,80.5 908.5,80.5C 908.5,96.5 908.5,112.5 908.5,128.5C 912.5,128.5 916.5,128.5 920.5,128.5C 920.5,133.833 920.5,139.167 920.5,144.5C 916.5,144.5 912.5,144.5 908.5,144.5C 908.5,151.5 908.5,158.5 908.5,165.5C 901.833,165.5 895.167,165.5 888.5,165.5C 888.5,158.5 888.5,151.5 888.5,144.5C 874.167,144.5 859.833,144.5 845.5,144.5C 845.334,138.824 845.501,133.157 846,127.5C 857.521,108.791 866.021,88.7912 871.5,67.5 Z"/></g>
<g><path style="opacity:0.884" fill="#fefffe" d="M 441.5,82.5 C 453.006,81.1683 462.84,84.5016 471,92.5C 472.75,95.2464 473.75,98.2464 474,101.5C 474.333,117.5 474.667,133.5 475,149.5C 477.719,150.444 480.552,150.777 483.5,150.5C 483.813,153.247 483.48,155.914 482.5,158.5C 476.518,161.411 471.018,160.744 466,156.5C 465.105,154.196 464.271,151.862 463.5,149.5C 450.03,161.431 435.363,163.265 419.5,155C 411.502,144.68 411.502,134.346 419.5,124C 424.345,120.578 429.678,118.245 435.5,117C 444.764,115.415 454.098,114.582 463.5,114.5C 465.078,95.4165 456.411,88.2498 437.5,93C 430.342,95.1381 427.009,99.9715 427.5,107.5C 423.894,107.789 420.394,107.456 417,106.5C 416.019,96.9608 419.853,90.1275 428.5,86C 432.86,84.4171 437.194,83.2505 441.5,82.5 Z M 451.5,123.5 C 455.5,123.5 459.5,123.5 463.5,123.5C 463.11,143.05 453.11,151.884 433.5,150C 426.334,147.166 423.834,141.999 426,134.5C 427.892,130.942 430.725,128.442 434.5,127C 440.224,125.432 445.89,124.266 451.5,123.5 Z"/></g>
<g><path style="opacity:0.898" fill="#fefffe" d="M 524.5,82.5 C 539.217,80.4209 548.383,86.4209 552,100.5C 552.5,119.83 552.667,139.164 552.5,158.5C 548.833,158.5 545.167,158.5 541.5,158.5C 541.667,140.164 541.5,121.83 541,103.5C 538.992,95.9768 533.992,92.3102 526,92.5C 516.819,93.0836 510.152,97.4169 506,105.5C 504.555,123.111 504.055,140.777 504.5,158.5C 500.833,158.5 497.167,158.5 493.5,158.5C 493.5,133.833 493.5,109.167 493.5,84.5C 496.5,84.5 499.5,84.5 502.5,84.5C 502.095,88.0479 502.595,91.3812 504,94.5C 509.217,87.4832 516.051,83.4832 524.5,82.5 Z"/></g>
<g><path style="opacity:0.879" fill="#fefffe" d="M 670.5,82.5 C 679.376,81.9781 687.709,83.8115 695.5,88C 700.481,91.9324 702.981,97.0991 703,103.5C 703.333,118.833 703.667,134.167 704,149.5C 706.719,150.444 709.552,150.777 712.5,150.5C 712.813,153.247 712.48,155.914 711.5,158.5C 700.926,162.911 694.426,159.577 692,148.5C 689.129,152.031 685.629,154.864 681.5,157C 672.275,161.034 662.942,161.368 653.5,158C 647.836,155.668 644.336,151.501 643,145.5C 640.868,129.608 647.702,120.108 663.5,117C 673.108,115.475 682.775,114.642 692.5,114.5C 694.063,95.4109 685.396,88.2442 666.5,93C 659.034,94.9681 655.701,99.8014 656.5,107.5C 652.833,107.5 649.167,107.5 645.5,107.5C 644.222,96.2821 648.888,88.7821 659.5,85C 663.312,84.2045 666.979,83.3712 670.5,82.5 Z M 680.5,123.5 C 684.5,123.5 688.5,123.5 692.5,123.5C 692.912,140.256 684.745,149.256 668,150.5C 657.375,150.213 653.042,144.88 655,134.5C 656.892,130.942 659.725,128.442 663.5,127C 669.224,125.432 674.89,124.266 680.5,123.5 Z"/></g>
<g><path style="opacity:0.884" fill="#fefffe" d="M 787.5,82.5 C 805.422,80.8586 816.922,88.5253 822,105.5C 823.188,111.778 823.688,118.112 823.5,124.5C 805.5,124.5 787.5,124.5 769.5,124.5C 770.021,145.927 780.688,154.093 801.5,149C 808.229,146.052 811.896,140.885 812.5,133.5C 815.768,132.513 819.102,132.18 822.5,132.5C 821.173,151.484 810.839,160.817 791.5,160.5C 772.455,160.618 761.622,151.284 759,132.5C 757.945,122.04 758.612,111.707 761,101.5C 766.119,89.867 774.953,83.5337 787.5,82.5 Z M 785.5,92.5 C 803.005,90.3442 811.672,98.0109 811.5,115.5C 797.5,115.5 783.5,115.5 769.5,115.5C 769.73,103.971 775.064,96.3039 785.5,92.5 Z"/></g>
<g><path style="opacity:0.9" fill="#fefffe" d="M 86.5,94.5 C 91.5,94.5 96.5,94.5 101.5,94.5C 101.5,116.167 101.5,137.833 101.5,159.5C 96.5,159.5 91.5,159.5 86.5,159.5C 86.5,137.833 86.5,116.167 86.5,94.5 Z"/></g>
<g><path style="opacity:0.9" fill="#fefffe" d="M 123.5,94.5 C 128.5,94.5 133.5,94.5 138.5,94.5C 138.5,116.167 138.5,137.833 138.5,159.5C 133.5,159.5 128.5,159.5 123.5,159.5C 123.5,137.833 123.5,116.167 123.5,94.5 Z"/></g>
<g><path style="opacity:0.9" fill="#fefffe" d="M 162.5,94.5 C 167.5,94.5 172.5,94.5 177.5,94.5C 177.5,116.167 177.5,137.833 177.5,159.5C 172.5,159.5 167.5,159.5 162.5,159.5C 162.5,137.833 162.5,116.167 162.5,94.5 Z"/></g>
<g><path style="opacity:0.9" fill="#fefffe" d="M 196.5,94.5 C 201.5,94.5 206.5,94.5 211.5,94.5C 211.5,116.167 211.5,137.833 211.5,159.5C 206.5,159.5 201.5,159.5 196.5,159.5C 196.5,137.833 196.5,116.167 196.5,94.5 Z"/></g>
<g><path style="opacity:0.888" fill="#fefffe" d="M 78.5,168.5 C 125.833,168.5 173.167,168.5 220.5,168.5C 220.5,172.167 220.5,175.833 220.5,179.5C 173.167,179.5 125.833,179.5 78.5,179.5C 78.5,175.833 78.5,172.167 78.5,168.5 Z"/></g>
</svg>
