<?xml version="1.0" encoding="UTF-8"?>
<!DOCTYPE svg PUBLIC "-//W3C//DTD SVG 1.1//EN" "http://www.w3.org/Graphics/SVG/1.1/DTD/svg11.dtd">
<svg xmlns="http://www.w3.org/2000/svg" version="1.1" width="1000px" height="606px" style="shape-rendering:geometricPrecision; text-rendering:geometricPrecision; image-rendering:optimizeQuality; fill-rule:evenodd; clip-rule:evenodd" xmlns:xlink="http://www.w3.org/1999/xlink">
<g><path style="opacity:0.979" fill="#fefffe" d="M 279.5,44.5 C 312.168,44.3334 344.835,44.5 377.5,45C 382.037,61.9183 387.871,78.4183 395,94.5C 396.89,100.015 397.724,105.681 397.5,111.5C 390.516,107.724 383.183,104.557 375.5,102C 344.609,95.868 321.442,106.368 306,133.5C 296.865,159.475 298.865,184.475 312,208.5C 323.222,224.532 338.722,232.865 358.5,233.5C 376.985,233.842 392.485,227.176 405,213.5C 417.966,194.336 422.633,173.336 419,150.5C 419.414,150.043 419.914,149.709 420.5,149.5C 436.68,189.411 430.847,225.745 403,258.5C 398.333,264.833 398.333,271.167 403,277.5C 408.291,282.97 413.958,287.97 420,292.5C 421.187,294.044 421.52,295.711 421,297.5C 375.368,312.378 330.534,310.545 286.5,292C 221.15,255.775 196.65,200.942 213,127.5C 221.055,99.874 236.222,77.0407 258.5,59C 265.403,53.9135 272.403,49.0801 279.5,44.5 Z"/></g>
<g><path style="opacity:0.929" fill="#fefffe" d="M 393.5,44.5 C 407.167,44.5 420.833,44.5 434.5,44.5C 434.703,46.3904 434.037,47.8904 432.5,49C 443.722,51.1225 455.055,52.4558 466.5,53C 471.131,53.7824 475.631,54.949 480,56.5C 480.496,54.9651 480.33,53.4651 479.5,52C 476.647,50.2495 475.98,47.9161 477.5,45C 479.167,44.3333 480.833,44.3333 482.5,45C 486.8,48.2981 490.8,51.9648 494.5,56C 500.418,58.0825 503.418,62.2491 503.5,68.5C 496.678,68.8761 490.012,68.0428 483.5,66C 477.5,65.3333 471.5,65.3333 465.5,66C 473.458,65.9836 480.458,68.4836 486.5,73.5C 487.386,74.325 487.719,75.325 487.5,76.5C 466.037,71.4978 445.037,72.9978 424.5,81C 419.526,84.3208 414.193,86.8208 408.5,88.5C 403.506,73.8505 398.506,59.1838 393.5,44.5 Z"/></g>
<g><path style="opacity:0.98" fill="#fefffe" d="M 518.5,44.5 C 530.838,44.3335 543.171,44.5001 555.5,45C 564.349,51.2577 573.016,57.7577 581.5,64.5C 587.439,58.0561 594.105,52.5561 601.5,48C 604.405,46.7138 607.405,45.7138 610.5,45C 656.5,44.3333 702.5,44.3333 748.5,45C 774.924,58.3882 790.757,79.5549 796,108.5C 797.832,129.795 798.999,151.129 799.5,172.5C 798.44,217.207 797.773,261.874 797.5,306.5C 767.267,307.828 737.1,307.828 707,306.5C 706.333,269.833 706.333,233.167 707,196.5C 708.667,194.833 710.333,193.167 712,191.5C 715.646,183.519 718.98,175.519 722,167.5C 723.828,165.919 725.828,164.585 728,163.5C 728.794,160.529 729.461,157.529 730,154.5C 733.624,152.741 735.291,149.741 735,145.5C 737.825,141.183 740.159,136.516 742,131.5C 745.708,129.162 749.375,126.829 753,124.5C 754.895,118.993 753.228,115.326 748,113.5C 746.897,108.628 745.23,103.962 743,99.5C 741.611,97.7727 739.944,96.4394 738,95.5C 732.467,97.7175 727.467,100.718 723,104.5C 713.14,100.264 702.973,99.4311 692.5,102C 690.268,104.735 687.601,106.902 684.5,108.5C 676.648,107.271 669.148,104.938 662,101.5C 658.013,102.829 654.013,104.162 650,105.5C 647.233,102.733 644.4,99.8997 641.5,97C 631.641,93.6321 621.974,94.1321 612.5,98.5C 612.315,104.273 609.815,108.606 605,111.5C 604.667,115.833 604.333,120.167 604,124.5C 603.308,125.025 602.808,125.692 602.5,126.5C 603.803,128.968 605.303,131.301 607,133.5C 608.181,137.308 607.348,140.475 604.5,143C 604.645,143.772 604.978,144.439 605.5,145C 601.788,148.392 599.288,152.559 598,157.5C 596.846,158.743 595.512,159.743 594,160.5C 593.36,164.483 592.86,168.483 592.5,172.5C 593.673,179.969 593.673,187.303 592.5,194.5C 595.283,196.412 598.283,196.412 601.5,194.5C 603.104,194.939 604.604,195.606 606,196.5C 610.411,194.94 614.577,195.44 618.5,198C 621.704,200.869 624.537,204.035 627,207.5C 627.318,211.195 627.818,214.862 628.5,218.5C 628.141,247.46 627.974,276.46 628,305.5C 597.724,307.488 567.224,308.154 536.5,307.5C 536.667,252.499 536.5,197.499 536,142.5C 536.543,129.144 532.709,117.31 524.5,107C 489.277,83.4173 452.277,80.2506 413.5,97.5C 412.269,96.3493 412.269,95.1827 413.5,94C 439.741,78.2063 467.408,75.2063 496.5,85C 499.249,86.1227 501.749,87.6227 504,89.5C 509.913,74.9249 514.746,59.9249 518.5,44.5 Z"/></g>
<g><path style="opacity:0.968" fill="#fefffe" d="M 452.5,91.5 C 471.452,90.6576 489.452,94.3242 506.5,102.5C 509.076,106.185 508.91,109.851 506,113.5C 476.804,148.995 469.471,188.661 484,232.5C 486,237.167 488,241.833 490,246.5C 494.963,253.597 499.796,260.764 504.5,268C 498.605,273.979 492.605,279.979 486.5,286C 477.989,293.18 469.489,300.347 461,307.5C 449.239,298.027 437.739,288.193 426.5,278C 423.117,274.953 420.117,271.62 417.5,268C 430.78,250.6 439.613,231.1 444,209.5C 449.042,172.647 439.375,140.314 415,112.5C 413.578,109.97 413.245,107.303 414,104.5C 416.371,102.058 419.204,100.224 422.5,99C 432.553,96.1534 442.553,93.6534 452.5,91.5 Z"/></g>
<g><path style="opacity:0.956" fill="#fefffe" d="M 179.5,360.5 C 197.506,361.434 215.506,361.434 233.5,360.5C 250.695,358.328 261.862,365.328 267,381.5C 267.827,405.073 267.66,428.573 266.5,452C 247.84,453.814 229.174,453.814 210.5,452C 201.753,449.551 195.919,444.051 193,435.5C 192.216,418.173 191.716,400.84 191.5,383.5C 186.833,383.5 182.167,383.5 177.5,383.5C 176.919,375.559 177.586,367.892 179.5,360.5 Z M 215.5,384.5 C 224.547,385.434 233.547,385.768 242.5,385.5C 243.483,399.785 243.816,414.118 243.5,428.5C 234.167,427.167 224.833,427.167 215.5,428.5C 215.5,413.833 215.5,399.167 215.5,384.5 Z"/></g>
<g><path style="opacity:0.956" fill="#fefffe" d="M 423.5,360.5 C 452.819,361.433 482.152,361.766 511.5,361.5C 511.667,383.169 511.5,404.836 511,426.5C 507.245,439.255 499.078,447.755 486.5,452C 465.5,452.667 444.5,452.667 423.5,452C 421.243,444.625 420.909,437.125 422.5,429.5C 426.833,429.5 431.167,429.5 435.5,429.5C 435.5,414.167 435.5,398.833 435.5,383.5C 430.901,383.8 426.401,383.467 422,382.5C 421.333,376.167 421.333,369.833 422,363.5C 422.513,362.473 423.013,361.473 423.5,360.5 Z M 458.5,383.5 C 468.5,383.5 478.5,383.5 488.5,383.5C 488.667,397.171 488.5,410.837 488,424.5C 486.5,426 485,427.5 483.5,429C 475.173,429.5 466.84,429.666 458.5,429.5C 458.5,414.167 458.5,398.833 458.5,383.5 Z"/></g>
<g><path style="opacity:0.951" fill="#fefffe" d="M 519.5,360.5 C 533.504,360.333 547.504,360.5 561.5,361C 562.812,368.109 562.812,375.276 561.5,382.5C 558.242,383.417 554.909,383.751 551.5,383.5C 551.167,399.181 551.501,414.848 552.5,430.5C 555.5,429.167 558.5,429.167 561.5,430.5C 562.497,437.803 562.831,445.137 562.5,452.5C 547.5,452.5 532.5,452.5 517.5,452.5C 517.5,445.167 517.5,437.833 517.5,430.5C 521.452,429.728 525.452,429.395 529.5,429.5C 529.5,414.167 529.5,398.833 529.5,383.5C 525.5,383.5 521.5,383.5 517.5,383.5C 516.919,375.559 517.586,367.892 519.5,360.5 Z"/></g>
<g><path style="opacity:0.947" fill="#fefffe" d="M 569.5,360.5 C 596.169,360.333 622.835,360.5 649.5,361C 650,361.5 650.5,362 651,362.5C 651.5,369.492 651.666,376.492 651.5,383.5C 635.922,383.176 620.422,383.509 605,384.5C 604.333,388.167 604.333,391.833 605,395.5C 605.5,396 606,396.5 606.5,397C 618.162,397.5 629.829,397.667 641.5,397.5C 641.5,403.833 641.5,410.167 641.5,416.5C 630.162,416.333 618.828,416.5 607.5,417C 604.467,420.389 603.801,424.222 605.5,428.5C 620.819,429.499 636.152,429.833 651.5,429.5C 651.5,436.833 651.5,444.167 651.5,451.5C 624.158,451.578 596.825,451.745 569.5,452C 568.291,444.551 568.291,437.051 569.5,429.5C 574.167,429.5 578.833,429.5 583.5,429.5C 584.765,414.493 584.598,399.493 583,384.5C 578.263,383.531 573.43,383.197 568.5,383.5C 568.201,375.747 568.534,368.08 569.5,360.5 Z"/></g>
<g><path style="opacity:0.948" fill="#fefffe" d="M 658.5,360.5 C 671.25,360.302 683.583,362.469 695.5,367C 705.514,372.678 714.68,379.511 723,387.5C 723.5,378.84 723.666,370.173 723.5,361.5C 731.167,361.5 738.833,361.5 746.5,361.5C 745.979,383.482 746.312,405.482 747.5,427.5C 747.528,435.539 747.028,443.539 746,451.5C 738.667,452.833 731.333,452.833 724,451.5C 724.766,426.027 714.766,406.361 694,392.5C 693.731,412.513 693.231,432.513 692.5,452.5C 685.167,452.5 677.833,452.5 670.5,452.5C 670.667,429.831 670.5,407.164 670,384.5C 665.599,383.533 661.099,383.2 656.5,383.5C 655.919,375.559 656.586,367.892 658.5,360.5 Z"/></g>
<g><path style="opacity:0.969" fill="#fefffe" d="M 269.5,361.5 C 298.167,361.5 326.833,361.5 355.5,361.5C 357.494,375.365 354.827,388.199 347.5,400C 351.486,400.499 355.486,400.666 359.5,400.5C 359.5,417.833 359.5,435.167 359.5,452.5C 334.504,451.92 309.504,451.587 284.5,451.5C 284.575,428.826 284.241,406.159 283.5,383.5C 278.833,383.5 274.167,383.5 269.5,383.5C 269.5,376.167 269.5,368.833 269.5,361.5 Z M 307.5,384.5 C 315.174,384.334 322.841,384.5 330.5,385C 328.33,390.501 324.33,393.834 318.5,395C 314.855,395.719 311.188,396.219 307.5,396.5C 307.5,392.5 307.5,388.5 307.5,384.5 Z M 307.5,421.5 C 316.506,421.334 325.506,421.5 334.5,422C 336.276,423.671 336.61,425.504 335.5,427.5C 326.19,428.498 316.857,428.832 307.5,428.5C 307.5,426.167 307.5,423.833 307.5,421.5 Z"/></g>
<g><path style="opacity:0.939" fill="#fefffe" d="M 367.5,361.5 C 382.833,361.5 398.167,361.5 413.5,361.5C 413.5,368.833 413.5,376.167 413.5,383.5C 409.5,383.5 405.5,383.5 401.5,383.5C 401.5,398.833 401.5,414.167 401.5,429.5C 405.5,429.5 409.5,429.5 413.5,429.5C 413.5,437.167 413.5,444.833 413.5,452.5C 398.496,452.667 383.496,452.5 368.5,452C 367.355,445.248 367.189,438.414 368,431.5C 371.65,429.954 375.484,429.287 379.5,429.5C 379.5,414.167 379.5,398.833 379.5,383.5C 376.15,383.665 372.817,383.498 369.5,383C 369,382.5 368.5,382 368,381.5C 367.5,374.842 367.334,368.175 367.5,361.5 Z"/></g>
<g><path style="opacity:0.954" fill="#fefffe" d="M 751.5,361.5 C 777.167,361.5 802.833,361.5 828.5,361.5C 828.5,368.833 828.5,376.167 828.5,383.5C 819.249,383.182 810.083,383.515 801,384.5C 800.178,406.543 800.345,428.543 801.5,450.5C 800.975,451.192 800.308,451.692 799.5,452C 792.842,452.5 786.175,452.666 779.5,452.5C 779.803,429.467 779.469,406.467 778.5,383.5C 769.5,383.5 760.5,383.5 751.5,383.5C 751.5,376.167 751.5,368.833 751.5,361.5 Z"/></g>
<g><path style="opacity:0.946" fill="#fefffe" d="M 107.5,474.5 C 118.505,474.333 129.505,474.5 140.5,475C 147.656,475.941 154.323,478.274 160.5,482C 165.021,486.022 169.688,489.856 174.5,493.5C 176.599,489.771 179.599,486.938 183.5,485C 196.66,475.544 211.327,472.044 227.5,474.5C 227.667,504.502 227.5,534.502 227,564.5C 219.253,565.482 211.42,565.815 203.5,565.5C 203.833,543.49 203.5,521.49 202.5,499.5C 193.476,503.695 187.976,510.695 186,520.5C 185.5,535.496 185.333,550.496 185.5,565.5C 178.167,565.5 170.833,565.5 163.5,565.5C 163.667,553.162 163.5,540.829 163,528.5C 163.456,518.584 159.956,510.417 152.5,504C 150.024,501.429 147.024,499.929 143.5,499.5C 143.963,521.533 143.963,543.533 143.5,565.5C 136.167,565.5 128.833,565.5 121.5,565.5C 121.5,542.5 121.5,519.5 121.5,496.5C 116.833,496.5 112.167,496.5 107.5,496.5C 107.5,489.167 107.5,481.833 107.5,474.5 Z"/></g>
<g><path style="opacity:0.964" fill="#fefffe" d="M 231.5,474.5 C 255.502,474.333 279.502,474.5 303.5,475C 317.194,480.706 323.194,491.039 321.5,506C 320.596,525.822 320.263,545.655 320.5,565.5C 301.164,565.667 281.83,565.5 262.5,565C 254.178,561.345 248.678,555.178 246,546.5C 245.5,529.837 245.333,513.17 245.5,496.5C 241.167,496.5 236.833,496.5 232.5,496.5C 231.608,489.115 231.275,481.781 231.5,474.5 Z M 268.5,496.5 C 277.833,496.5 287.167,496.5 296.5,496.5C 298.727,511.446 299.061,526.446 297.5,541.5C 288.498,541.782 279.498,542.115 270.5,542.5C 269.702,540.922 269.202,539.256 269,537.5C 268.5,523.837 268.333,510.171 268.5,496.5 Z"/></g>
<g><path style="opacity:0.953" fill="#fefffe" d="M 324.5,474.5 C 336.833,474.5 349.167,474.5 361.5,474.5C 361.928,486.833 362.428,499.167 363,511.5C 365.717,527.626 374.884,537.96 390.5,542.5C 391.086,542.291 391.586,541.957 392,541.5C 392.5,519.169 392.667,496.836 392.5,474.5C 399.833,474.5 407.167,474.5 414.5,474.5C 414.5,504.833 414.5,535.167 414.5,565.5C 392.022,568.263 372.188,562.596 355,548.5C 345.198,532.976 339.865,515.976 339,497.5C 334.333,496.833 329.667,496.167 325,495.5C 324.5,488.508 324.334,481.508 324.5,474.5 Z"/></g>
<g><path style="opacity:0.951" fill="#fefffe" d="M 423.5,474.5 C 451.167,474.5 478.833,474.5 506.5,474.5C 506.797,481.558 506.464,488.558 505.5,495.5C 501.973,496.878 498.306,497.545 494.5,497.5C 483.512,496.482 472.512,496.315 461.5,497C 460.533,501.401 460.2,505.901 460.5,510.5C 472.171,510.333 483.838,510.5 495.5,511C 497.027,513.757 497.693,516.757 497.5,520C 496.995,523.282 496.995,526.449 497.5,529.5C 485.185,530.499 472.851,530.832 460.5,530.5C 459.167,534.833 459.167,539.167 460.5,543.5C 475.833,543.5 491.167,543.5 506.5,543.5C 506.5,550.833 506.5,558.167 506.5,565.5C 478.833,565.5 451.167,565.5 423.5,565.5C 423.334,558.492 423.5,551.492 424,544.5C 428.401,543.533 432.901,543.2 437.5,543.5C 437.5,527.833 437.5,512.167 437.5,496.5C 432.833,496.5 428.167,496.5 423.5,496.5C 423.5,489.167 423.5,481.833 423.5,474.5 Z"/></g>
<g><path style="opacity:0.946" fill="#fefffe" d="M 510.5,474.5 C 523.561,474.078 536.561,474.578 549.5,476C 560.76,479.541 570.26,485.708 578,494.5C 591.263,478.134 608.429,471.634 629.5,475C 630.18,500.451 630.847,525.951 631.5,551.5C 630.615,556.122 630.282,560.789 630.5,565.5C 623.87,566.546 617.203,566.713 610.5,566C 609.484,565.481 608.818,564.647 608.5,563.5C 607.667,542.182 606.833,520.848 606,499.5C 597.395,504.107 591.728,511.107 589,520.5C 588.833,535.511 588.333,550.511 587.5,565.5C 580.526,566.659 573.526,566.659 566.5,565.5C 568.289,550.085 567.789,534.752 565,519.5C 562.64,510.472 557.307,503.805 549,499.5C 547.688,521.078 547.022,542.745 547,564.5C 544.753,565.98 542.253,566.647 539.5,566.5C 534.519,565.835 529.519,565.502 524.5,565.5C 524.5,542.5 524.5,519.5 524.5,496.5C 521.552,496.223 518.719,496.556 516,497.5C 514.491,496.91 512.991,496.244 511.5,495.5C 510.746,488.473 510.412,481.473 510.5,474.5 Z"/></g>
<g><path style="opacity:0.966" fill="#fefffe" d="M 638.5,474.5 C 665.833,474.5 693.167,474.5 720.5,474.5C 721.459,481.733 721.459,488.899 720.5,496C 705.504,496.5 690.504,496.667 675.5,496.5C 675.2,501.099 675.533,505.599 676.5,510C 688.162,510.5 699.829,510.667 711.5,510.5C 711.5,517.167 711.5,523.833 711.5,530.5C 700.167,531.605 688.834,531.772 677.5,531C 676.267,532.698 675.6,534.698 675.5,537C 675.667,538.833 675.833,540.667 676,542.5C 690.755,543.491 705.588,543.824 720.5,543.5C 720.5,550.833 720.5,558.167 720.5,565.5C 693.167,565.5 665.833,565.5 638.5,565.5C 638.5,558.167 638.5,550.833 638.5,543.5C 643.099,543.8 647.599,543.467 652,542.5C 652.5,527.17 652.667,511.837 652.5,496.5C 647.833,496.5 643.167,496.5 638.5,496.5C 638.5,489.167 638.5,481.833 638.5,474.5 Z"/></g>
<g><path style="opacity:0.952" fill="#fefffe" d="M 726.5,474.5 C 736.974,473.904 747.308,474.737 757.5,477C 770.513,482.839 782.179,490.672 792.5,500.5C 793.498,491.859 793.831,483.192 793.5,474.5C 801.167,474.5 808.833,474.5 816.5,474.5C 816.5,504.833 816.5,535.167 816.5,565.5C 808.833,565.5 801.167,565.5 793.5,565.5C 794.288,547.031 788.788,530.698 777,516.5C 772.62,512.452 767.954,508.785 763,505.5C 763.549,524.91 763.549,544.243 763,563.5C 755.442,565.447 747.609,566.114 739.5,565.5C 739.5,542.5 739.5,519.5 739.5,496.5C 735.233,496.797 731.066,496.464 727,495.5C 726.5,488.508 726.334,481.508 726.5,474.5 Z"/></g>
<g><path style="opacity:0.961" fill="#fefffe" d="M 821.5,474.5 C 844.833,474.5 868.167,474.5 891.5,474.5C 891.5,481.833 891.5,489.167 891.5,496.5C 884.5,496.5 877.5,496.5 870.5,496.5C 870.5,519.5 870.5,542.5 870.5,565.5C 863.147,566.614 855.813,566.614 848.5,565.5C 847.439,547.492 847.773,529.492 849.5,511.5C 849.037,506.829 848.537,502.163 848,497.5C 839.251,496.516 830.418,496.183 821.5,496.5C 821.5,489.167 821.5,481.833 821.5,474.5 Z"/></g>
</svg>
