<?xml version="1.0" encoding="UTF-8"?>
<!DOCTYPE svg PUBLIC "-//W3C//DTD SVG 1.1//EN" "http://www.w3.org/Graphics/SVG/1.1/DTD/svg11.dtd">
<svg xmlns="http://www.w3.org/2000/svg" version="1.1" width="579px" height="304px" style="shape-rendering:geometricPrecision; text-rendering:geometricPrecision; image-rendering:optimizeQuality; fill-rule:evenodd; clip-rule:evenodd" xmlns:xlink="http://www.w3.org/1999/xlink">
<g><path style="opacity:0.984" fill="#20b171" d="M 143.5,127.5 C 135.652,128.749 135.652,129.415 143.5,129.5C 143.5,140.167 143.5,150.833 143.5,161.5C 138.257,159.307 132.923,157.307 127.5,155.5C 126.868,153.263 125.535,151.597 123.5,150.5C 120.667,154.167 117.833,157.833 115,161.5C 114.27,168.548 114.603,175.548 116,182.5C 119.667,188.833 123.333,195.167 127,201.5C 127.499,205.486 127.666,209.486 127.5,213.5C 117.5,213.5 107.5,213.5 97.5,213.5C 97.1254,202.778 97.6254,192.111 99,181.5C 104.171,173.828 108.838,165.828 113,157.5C 114.808,148.13 114.808,138.797 113,129.5C 109.947,126.113 107.28,122.447 105,118.5C 101.139,117.396 99.3054,119.063 99.5,123.5C 95.5336,125.719 91.2003,126.886 86.5,127C 84.5448,127.953 82.8782,129.287 81.5,131C 75.3386,130.015 72.0052,132.515 71.5,138.5C 65.4263,137.94 61.9263,140.607 61,146.5C 60.3333,152.167 60.3333,157.833 61,163.5C 62.6667,169.167 64.3333,174.833 66,180.5C 66.4998,191.495 66.6665,202.495 66.5,213.5C 59.5,213.5 52.5,213.5 45.5,213.5C 45.335,210.15 45.5017,206.817 46,203.5C 50.7494,196.668 54.4161,189.335 57,181.5C 57.6667,177.5 57.6667,173.5 57,169.5C 54.0956,166.358 52.2622,162.691 51.5,158.5C 47.4709,158.057 45.4709,159.891 45.5,164C 42.6074,165.149 39.6074,165.649 36.5,165.5C 36.5,120.167 36.5,74.8333 36.5,29.5C 72.1667,29.5 107.833,29.5 143.5,29.5C 143.5,62.1667 143.5,94.8333 143.5,127.5 Z"/></g>
<g><path style="opacity:0.702" fill="#fefffe" d="M 205.5,36.5 C 206.649,36.7911 207.316,37.6244 207.5,39C 207.885,44.0078 208.885,48.8412 210.5,53.5C 217.364,50.5035 223.864,51.1702 230,55.5C 231.562,57.9573 232.562,60.624 233,63.5C 233.5,71.8267 233.666,80.16 233.5,88.5C 231.167,88.5 228.833,88.5 226.5,88.5C 226.666,80.8261 226.5,73.1594 226,65.5C 221.74,56.183 216.074,55.183 209,62.5C 208.5,71.1603 208.334,79.8269 208.5,88.5C 206.167,88.5 203.833,88.5 201.5,88.5C 201.167,71.82 201.501,55.1533 202.5,38.5C 203.739,38.0576 204.739,37.3909 205.5,36.5 Z"/></g>
<g><path style="opacity:0.762" fill="#fefffe" d="M 155.5,38.5 C 169.5,38.5 183.5,38.5 197.5,38.5C 197.5,40.5 197.5,42.5 197.5,44.5C 191.833,44.5 186.167,44.5 180.5,44.5C 180.5,59.1667 180.5,73.8333 180.5,88.5C 178.167,88.5 175.833,88.5 173.5,88.5C 173.5,73.8333 173.5,59.1667 173.5,44.5C 167.5,44.5 161.5,44.5 155.5,44.5C 155.5,42.5 155.5,40.5 155.5,38.5 Z"/></g>
<g><path style="opacity:0.71" fill="#fefffe" d="M 249.5,51.5 C 264.992,49.994 272.992,56.994 273.5,72.5C 263.828,72.3335 254.161,72.5002 244.5,73C 249.375,83.0394 256.708,85.206 266.5,79.5C 270.607,81.2949 271.273,83.7949 268.5,87C 247.365,93.1902 237.531,85.3569 239,63.5C 240.936,58.0678 244.436,54.0678 249.5,51.5 Z M 252.5,57.5 C 258.581,57.3718 262.914,60.0385 265.5,65.5C 261.87,67.0427 258.037,67.7093 254,67.5C 251.167,67.1667 248.333,66.8333 245.5,66.5C 246.774,62.5725 249.107,59.5725 252.5,57.5 Z"/></g>
<g><path style="opacity:0.805" fill="#d31359" d="M 425.5,87.5 C 430.5,87.5 435.5,87.5 440.5,87.5C 438.634,95.4319 435.967,103.099 432.5,110.5C 428.722,112.255 424.722,112.922 420.5,112.5C 422.039,104.14 423.705,95.8062 425.5,87.5 Z"/></g>
<g><path style="opacity:1" fill="#15613e" d="M 76.5,82.5 C 79.3795,87.0224 80.5462,92.0224 80,97.5C 78.3618,92.6137 77.1952,87.6137 76.5,82.5 Z"/></g>
<g><path style="opacity:0.909" fill="#d31458" d="M 366.5,89.5 C 367.5,89.5 368.5,89.5 369.5,89.5C 371.157,109.124 371.824,128.791 371.5,148.5C 366.833,148.5 362.167,148.5 357.5,148.5C 357.5,129.5 357.5,110.5 357.5,91.5C 360.781,91.5797 363.781,90.913 366.5,89.5 Z"/></g>
<g><path style="opacity:0.872" fill="#d31358" d="M 158.5,91.5 C 169.505,91.3335 180.505,91.5002 191.5,92C 204.255,94.6627 209.755,102.496 208,115.5C 205.059,123.777 199.225,128.277 190.5,129C 185.177,129.499 179.844,129.666 174.5,129.5C 174.5,135.833 174.5,142.167 174.5,148.5C 169.167,148.5 163.833,148.5 158.5,148.5C 158.5,129.5 158.5,110.5 158.5,91.5 Z M 174.5,105.5 C 179.511,105.334 184.511,105.501 189.5,106C 194.031,110.531 193.364,113.864 187.5,116C 183.179,116.499 178.846,116.666 174.5,116.5C 174.5,112.833 174.5,109.167 174.5,105.5 Z"/></g>
<g><path style="opacity:1" fill="#114a30" d="M 117.5,95.5 C 118.097,95.7352 118.43,96.2352 118.5,97C 117.683,98.49 116.85,99.99 116,101.5C 115.591,99.3049 116.091,97.3049 117.5,95.5 Z"/></g>
<g><path style="opacity:1" fill="#124d32" d="M 56.5,93.5 C 59.3203,95.4784 60.8203,98.145 61,101.5C 59.2226,98.9406 57.7226,96.2739 56.5,93.5 Z"/></g>
<g><path style="opacity:1" fill="#124f34" d="M 45.5,96.5 C 48.0735,97.8793 49.5735,99.8793 50,102.5C 47.8733,100.886 46.3733,98.8863 45.5,96.5 Z"/></g>
<g><path style="opacity:1" fill="#155a3a" d="M 124.5,102.5 C 125.376,102.369 126.043,102.702 126.5,103.5C 122.415,108.982 121.748,108.649 124.5,102.5 Z"/></g>
<g><path style="opacity:0.88" fill="#d31458" d="M 223.5,104.5 C 243.187,103.521 252.521,112.854 251.5,132.5C 242.161,132.334 232.827,132.5 223.5,133C 228.347,138.375 233.68,138.875 239.5,134.5C 243.603,136.216 246.936,138.883 249.5,142.5C 242.268,148.559 233.935,150.725 224.5,149C 211.178,144.651 205.678,135.485 208,121.5C 210.247,113.09 215.414,107.423 223.5,104.5 Z M 227.5,116.5 C 230.765,116.299 233.431,117.466 235.5,120C 231.5,122 227.5,122 223.5,120C 224.731,118.595 226.064,117.429 227.5,116.5 Z"/></g>
<g><path style="opacity:0.887" fill="#d31458" d="M 270.5,104.5 C 288.332,101.847 298.665,109.347 301.5,127C 298.679,144.811 288.346,152.144 270.5,149C 255.267,142.321 250.767,131.155 257,115.5C 260.336,110.269 264.836,106.602 270.5,104.5 Z M 273.5,117.5 C 283.536,117.032 287.702,121.699 286,131.5C 281.047,137.756 275.714,138.09 270,132.5C 267.576,126.676 268.743,121.676 273.5,117.5 Z"/></g>
<g><path style="opacity:0.904" fill="#d31458" d="M 325.5,104.5 C 341.624,103.299 350.958,110.632 353.5,126.5C 350.786,145.401 340.286,152.401 322,147.5C 320.649,153.072 320.149,158.738 320.5,164.5C 315.833,164.5 311.167,164.5 306.5,164.5C 306.5,144.833 306.5,125.167 306.5,105.5C 311.337,105.116 316.003,105.783 320.5,107.5C 322.396,106.725 324.063,105.725 325.5,104.5 Z M 324.5,117.5 C 334.474,116.308 338.974,120.642 338,130.5C 333.385,137.203 327.719,138.203 321,133.5C 320.333,129.167 320.333,124.833 321,120.5C 322.145,119.364 323.312,118.364 324.5,117.5 Z"/></g>
<g><path style="opacity:0.88" fill="#d31458" d="M 392.5,104.5 C 412.187,103.521 421.521,112.854 420.5,132.5C 411.161,132.334 401.827,132.5 392.5,133C 397.347,138.375 402.68,138.875 408.5,134.5C 412.603,136.216 415.936,138.883 418.5,142.5C 411.268,148.559 402.935,150.725 393.5,149C 380.178,144.651 374.678,135.485 377,121.5C 379.247,113.09 384.414,107.423 392.5,104.5 Z M 396.5,116.5 C 399.765,116.299 402.431,117.466 404.5,120C 400.5,122 396.5,122 392.5,120C 393.731,118.595 395.064,117.429 396.5,116.5 Z"/></g>
<g><path style="opacity:0.861" fill="#d21458" d="M 451.5,104.5 C 460.943,103.361 469.609,105.361 477.5,110.5C 475.547,114.12 472.881,117.12 469.5,119.5C 464.132,116.19 458.799,115.856 453.5,118.5C 461.044,120.218 468.377,122.552 475.5,125.5C 481.131,135.236 479.131,142.736 469.5,148C 458.469,151.012 448.136,149.512 438.5,143.5C 440.354,139.779 442.687,136.446 445.5,133.5C 449.744,135.859 454.244,137.526 459,138.5C 461.37,138.4 463.203,137.4 464.5,135.5C 458.981,133.773 453.314,132.273 447.5,131C 444.667,129.5 442.5,127.333 441,124.5C 438.485,114.525 441.985,107.858 451.5,104.5 Z"/></g>
<g><path style="opacity:1" fill="#134f33" d="M 39.5,106.5 C 41.6298,108.127 43.6298,109.96 45.5,112C 42.4735,111.481 40.4735,109.648 39.5,106.5 Z"/></g>
<g><path style="opacity:1" fill="#0f412a" d="M 131.5,109.5 C 133.028,109.517 133.528,110.184 133,111.5C 127.762,114.299 127.262,113.632 131.5,109.5 Z"/></g>
<g><path style="opacity:0.995" fill="#000200" d="M 97.5,213.5 C 87.1667,213.5 76.8333,213.5 66.5,213.5C 66.6665,202.495 66.4998,191.495 66,180.5C 64.3333,174.833 62.6667,169.167 61,163.5C 60.3333,157.833 60.3333,152.167 61,146.5C 61.9263,140.607 65.4263,137.94 71.5,138.5C 72.0052,132.515 75.3386,130.015 81.5,131C 82.8782,129.287 84.5448,127.953 86.5,127C 91.2003,126.886 95.5336,125.719 99.5,123.5C 99.3054,119.063 101.139,117.396 105,118.5C 107.28,122.447 109.947,126.113 113,129.5C 114.808,138.797 114.808,148.13 113,157.5C 108.838,165.828 104.171,173.828 99,181.5C 97.6254,192.111 97.1254,202.778 97.5,213.5 Z"/></g>
<g><path style="opacity:1" fill="#166b44" d="M 132.5,120.5 C 133.552,120.351 134.552,120.517 135.5,121C 133.431,122.874 131.098,123.874 128.5,124C 130.093,123.051 131.426,121.885 132.5,120.5 Z"/></g>
<g><path style="opacity:0.98" fill="#104b30" d="M 143.5,127.5 C 143.5,128.167 143.5,128.833 143.5,129.5C 135.652,129.415 135.652,128.749 143.5,127.5 Z"/></g>
<g><path style="opacity:0.974" fill="#000302" d="M 143.5,161.5 C 143.5,178.833 143.5,196.167 143.5,213.5C 138.167,213.5 132.833,213.5 127.5,213.5C 127.666,209.486 127.499,205.486 127,201.5C 123.333,195.167 119.667,188.833 116,182.5C 114.603,175.548 114.27,168.548 115,161.5C 117.833,157.833 120.667,154.167 123.5,150.5C 125.535,151.597 126.868,153.263 127.5,155.5C 132.923,157.307 138.257,159.307 143.5,161.5 Z"/></g>
<g><path style="opacity:0.691" fill="#fefffe" d="M 373.5,157.5 C 383.177,156.491 386.177,160.324 382.5,169C 376.011,172.22 372.011,170.386 370.5,163.5C 370.984,161.199 371.984,159.199 373.5,157.5 Z"/></g>
<g><path style="opacity:0.691" fill="#fefffe" d="M 420.5,157.5 C 430.177,156.491 433.177,160.324 429.5,169C 423.011,172.22 419.011,170.386 417.5,163.5C 417.984,161.199 418.984,159.199 420.5,157.5 Z"/></g>
<g><path style="opacity:0.964" fill="#020704" d="M 45.5,213.5 C 42.5,213.5 39.5,213.5 36.5,213.5C 36.5,197.5 36.5,181.5 36.5,165.5C 39.6074,165.649 42.6074,165.149 45.5,164C 45.4709,159.891 47.4709,158.057 51.5,158.5C 52.2622,162.691 54.0956,166.358 57,169.5C 57.6667,173.5 57.6667,177.5 57,181.5C 54.4161,189.335 50.7494,196.668 46,203.5C 45.5017,206.817 45.335,210.15 45.5,213.5 Z"/></g>
<g><path style="opacity:0.836" fill="#fefffe" d="M 173.5,160.5 C 200.233,158.396 210.733,170.396 205,196.5C 196.7,208.374 185.533,212.207 171.5,208C 157.241,200.227 153.074,188.727 159,173.5C 160.061,170.438 161.894,167.938 164.5,166C 167.564,164.141 170.564,162.308 173.5,160.5 Z M 177.5,172.5 C 189.191,172.354 194.358,178.02 193,189.5C 188.088,198.015 181.588,199.515 173.5,194C 167.627,185.461 168.96,178.295 177.5,172.5 Z"/></g>
<g><path style="opacity:0.847" fill="#fefffe" d="M 402.5,160.5 C 403.75,160.577 404.583,161.244 405,162.5C 405.498,165.817 405.665,169.15 405.5,172.5C 408.833,172.5 412.167,172.5 415.5,172.5C 415.5,175.833 415.5,179.167 415.5,182.5C 412.167,182.5 408.833,182.5 405.5,182.5C 405.334,187.179 405.501,191.845 406,196.5C 408.939,198.813 412.105,199.146 415.5,197.5C 415.823,201.226 415.489,204.893 414.5,208.5C 409.146,209.818 403.813,209.651 398.5,208C 397.333,206.833 396.167,205.667 395,204.5C 393.814,197.214 393.314,189.881 393.5,182.5C 391.167,182.5 388.833,182.5 386.5,182.5C 386.5,179.167 386.5,175.833 386.5,172.5C 388.833,172.5 391.167,172.5 393.5,172.5C 393.183,169.428 393.516,166.428 394.5,163.5C 397.384,162.791 400.051,161.791 402.5,160.5 Z"/></g>
<g><path style="opacity:0.852" fill="#fefffe" d="M 226.5,171.5 C 246.988,172.156 253.821,182.156 247,201.5C 240.663,208.834 232.997,210.834 224,207.5C 222.675,212.401 222.175,217.401 222.5,222.5C 218.5,222.5 214.5,222.5 210.5,222.5C 210.5,205.833 210.5,189.167 210.5,172.5C 214.675,172.188 218.675,172.855 222.5,174.5C 223.901,173.479 225.235,172.479 226.5,171.5 Z M 226.5,182.5 C 233.989,182.487 237.489,186.153 237,193.5C 232.997,199.171 228.33,199.838 223,195.5C 222.333,192.167 222.333,188.833 223,185.5C 224.145,184.364 225.312,183.364 226.5,182.5 Z"/></g>
<g><path style="opacity:0.852" fill="#fefffe" d="M 269.5,171.5 C 289.988,172.156 296.821,182.156 290,201.5C 283.663,208.834 275.997,210.834 267,207.5C 265.675,212.401 265.175,217.401 265.5,222.5C 261.5,222.5 257.5,222.5 253.5,222.5C 253.5,205.833 253.5,189.167 253.5,172.5C 257.675,172.188 261.675,172.855 265.5,174.5C 266.901,173.479 268.235,172.479 269.5,171.5 Z M 269.5,182.5 C 276.989,182.487 280.489,186.153 280,193.5C 275.997,199.171 271.33,199.838 266,195.5C 265.333,192.167 265.333,188.833 266,185.5C 267.145,184.364 268.312,183.364 269.5,182.5 Z"/></g>
<g><path style="opacity:0.82" fill="#fefffe" d="M 308.5,171.5 C 326.637,169.473 335.137,177.473 334,195.5C 326.624,210.356 315.791,213.522 301.5,205C 298.894,203.062 297.061,200.562 296,197.5C 293.026,185.201 297.193,176.535 308.5,171.5 Z M 311.5,182.5 C 319.717,182.547 322.883,186.547 321,194.5C 316.211,200.052 311.878,199.719 308,193.5C 306.882,189.077 308.049,185.41 311.5,182.5 Z"/></g>
<g><path style="opacity:0.784" fill="#fefffe" d="M 345.5,171.5 C 353.411,170.881 360.745,172.547 367.5,176.5C 365.883,179.784 363.55,182.451 360.5,184.5C 356.804,182.268 352.804,181.268 348.5,181.5C 348.5,182.5 348.5,183.5 348.5,184.5C 353.211,185.01 357.878,185.844 362.5,187C 366.802,188.935 368.802,192.268 368.5,197C 366.993,206.45 361.326,210.617 351.5,209.5C 345.048,209.462 339.381,207.462 334.5,203.5C 336.5,200.833 338.833,198.5 341.5,196.5C 346.386,199.417 351.386,199.917 356.5,198C 352.205,196.775 347.872,195.442 343.5,194C 336.454,190.543 334.287,185.043 337,177.5C 339.322,174.605 342.155,172.605 345.5,171.5 Z"/></g>
<g><path style="opacity:0.82" fill="#fefffe" d="M 447.5,171.5 C 465.637,169.473 474.137,177.473 473,195.5C 465.624,210.356 454.791,213.522 440.5,205C 437.894,203.062 436.061,200.562 435,197.5C 432.026,185.201 436.193,176.535 447.5,171.5 Z M 450.5,182.5 C 458.717,182.547 461.883,186.547 460,194.5C 455.211,200.052 450.878,199.719 447,193.5C 445.882,189.077 447.049,185.41 450.5,182.5 Z"/></g>
<g><path style="opacity:0.846" fill="#fefffe" d="M 491.5,171.5 C 502.03,169.506 508.864,173.506 512,183.5C 512.5,191.827 512.666,200.16 512.5,208.5C 508.167,208.5 503.833,208.5 499.5,208.5C 499.666,200.826 499.5,193.159 499,185.5C 495.667,181.5 492.333,181.5 489,185.5C 488.5,193.159 488.334,200.826 488.5,208.5C 484.5,208.5 480.5,208.5 476.5,208.5C 476.5,196.5 476.5,184.5 476.5,172.5C 480.39,172.272 484.224,172.606 488,173.5C 489.459,173.192 490.626,172.525 491.5,171.5 Z"/></g>
<g><path style="opacity:0.871" fill="#fdfffd" d="M 371.5,172.5 C 375.5,172.5 379.5,172.5 383.5,172.5C 383.5,184.5 383.5,196.5 383.5,208.5C 379.5,208.5 375.5,208.5 371.5,208.5C 371.5,196.5 371.5,184.5 371.5,172.5 Z"/></g>
<g><path style="opacity:0.871" fill="#fdfffd" d="M 418.5,172.5 C 422.5,172.5 426.5,172.5 430.5,172.5C 430.5,184.5 430.5,196.5 430.5,208.5C 426.5,208.5 422.5,208.5 418.5,208.5C 418.5,196.5 418.5,184.5 418.5,172.5 Z"/></g>
<g><path style="opacity:0.549" fill="#fefffe" d="M 39.5,232.5 C 40.8734,232.343 42.2068,232.51 43.5,233C 44.3041,234.771 45.4708,236.271 47,237.5C 46.7913,233.541 48.6246,231.874 52.5,232.5C 52.3367,234.857 52.5034,237.19 53,239.5C 56.1779,234.629 59.8445,234.296 64,238.5C 65.4317,246.742 62.265,249.575 54.5,247C 53.8095,245.933 53.3095,244.766 53,243.5C 52.5065,245.134 52.3398,246.801 52.5,248.5C 51.1266,248.657 49.7932,248.49 48.5,248C 47,245.833 45.5,243.667 44,241.5C 43.5034,243.81 43.3367,246.143 43.5,248.5C 41.8561,248.714 40.3561,248.38 39,247.5C 38.3369,242.463 38.5036,237.463 39.5,232.5 Z M 57.5,240.5 C 59.9732,240.947 60.1399,241.947 58,243.5C 57.5172,242.552 57.3505,241.552 57.5,240.5 Z"/></g>
<g><path style="opacity:0.548" fill="#fefffe" d="M 127.5,232.5 C 130.5,233.833 133.5,233.833 136.5,232.5C 136.338,234.527 136.505,236.527 137,238.5C 140.333,234.5 143.667,234.5 147,238.5C 151.039,234.922 155.039,234.922 159,238.5C 162.34,234.919 166.006,234.585 170,237.5C 177.594,235.105 180.928,237.772 180,245.5C 181.826,244.159 182.993,244.659 183.5,247C 181.57,251.753 180.07,251.586 179,246.5C 175.304,249.425 171.971,249.092 169,245.5C 166.374,249.072 163.374,249.405 160,246.5C 158.556,248.155 156.722,248.822 154.5,248.5C 154.813,245.753 154.48,243.086 153.5,240.5C 152.692,242.423 152.192,244.423 152,246.5C 150.451,249.003 148.784,249.003 147,246.5C 143.393,249.269 140.06,248.936 137,245.5C 136.751,246.624 136.251,247.624 135.5,248.5C 133.167,247.167 130.833,247.167 128.5,248.5C 127.808,247.975 127.308,247.308 127,246.5C 124.293,248.886 121.46,249.052 118.5,247C 118.306,244.316 118.14,241.483 118,238.5C 120.475,235.476 123.475,234.81 127,236.5C 127.49,235.207 127.657,233.873 127.5,232.5 Z M 163.5,240.5 C 167.88,241.099 168.214,242.099 164.5,243.5C 163.614,242.675 163.281,241.675 163.5,240.5 Z"/></g>
<g><path style="opacity:0.566" fill="#fdfffd" d="M 71.5,235.5 C 74.3488,236.591 77.1821,236.591 80,235.5C 81.982,235.99 83.6487,236.99 85,238.5C 88.7456,234.607 92.4123,234.607 96,238.5C 97.7972,236.844 99.9639,235.844 102.5,235.5C 104.433,237.564 106.6,237.564 109,235.5C 114.415,237.405 115.915,241.072 113.5,246.5C 107.416,249.449 103.749,247.449 102.5,240.5C 101.686,242.766 101.186,245.1 101,247.5C 99.6439,248.38 98.1439,248.714 96.5,248.5C 96.6495,247.448 96.4828,246.448 96,245.5C 92.9401,248.936 89.6068,249.269 86,246.5C 84.5557,248.155 82.7224,248.822 80.5,248.5C 79.8333,237.833 79.1667,237.833 78.5,248.5C 77.1667,248.5 75.8333,248.5 74.5,248.5C 73.8333,239.167 73.1667,239.167 72.5,248.5C 70.8561,248.714 69.3561,248.38 68,247.5C 67.5014,243.848 67.3347,240.182 67.5,236.5C 69.099,236.768 70.4324,236.434 71.5,235.5 Z M 89.5,240.5 C 92.6741,240.952 93.0075,241.952 90.5,243.5C 89.6143,242.675 89.281,241.675 89.5,240.5 Z"/></g>
<g><path style="opacity:0.436" fill="#fdfffd" d="M 118.5,253.5 C 119.833,253.5 121.167,253.5 122.5,253.5C 122.167,255.5 121.833,257.5 121.5,259.5C 124.895,257.854 128.061,258.187 131,260.5C 133.497,258.522 136.331,258.022 139.5,259C 140.874,262.41 141.541,262.243 141.5,258.5C 144.073,258.148 146.406,258.648 148.5,260C 145.562,262.898 143.729,266.398 143,270.5C 142.692,269.692 142.192,269.025 141.5,268.5C 138.165,271.071 134.832,271.071 131.5,268.5C 126.247,271.944 122.747,270.611 121,264.5C 120.185,266.623 119.185,268.623 118,270.5C 116.833,267 115.667,263.5 114.5,260C 116.043,257.958 117.376,255.792 118.5,253.5 Z M 126.5,266.5 C 128.035,265.212 129.701,265.212 131.5,266.5C 129.997,267.052 128.331,267.052 126.5,266.5 Z"/></g>
<g><path style="opacity:0.446" fill="#fdfffd" d="M 39.5,254.5 C 43.7192,255.548 46.5525,258.215 48,262.5C 49.2482,252.511 50.9149,252.177 53,261.5C 55.288,258.222 58.1213,257.722 61.5,260C 63.8373,262.593 64.004,265.426 62,268.5C 59,269.833 56,269.833 53,268.5C 52.3109,269.357 51.4776,270.023 50.5,270.5C 47.0879,268.255 44.5879,265.255 43,261.5C 42.6543,264.576 41.9876,267.576 41,270.5C 39.661,265.264 39.161,259.93 39.5,254.5 Z M 56.5,261.5 C 60.6431,262.408 61.1431,264.074 58,266.5C 57.0754,265.953 56.2421,265.287 55.5,264.5C 56.1272,263.583 56.4606,262.583 56.5,261.5 Z"/></g>
<g><path style="opacity:0.419" fill="#fdfffd" d="M 67.5,258.5 C 72.5275,258.503 77.5275,258.836 82.5,259.5C 82.9149,263.061 83.9149,262.894 85.5,259C 87.8333,258.333 90.1667,258.333 92.5,259C 93.8741,262.41 94.5408,262.243 94.5,258.5C 97.0444,258.104 99.2111,258.771 101,260.5C 105.672,257.377 109.172,258.377 111.5,263.5C 109.78,264.934 107.78,265.767 105.5,266C 112.019,267.331 112.019,268.831 105.5,270.5C 101.691,269.236 99.524,266.57 99,262.5C 98.7296,265.362 97.8962,268.028 96.5,270.5C 95.8333,269.5 95.1667,268.5 94.5,267.5C 90.9598,271.446 87.4598,271.446 84,267.5C 83.1667,268.5 82.3333,269.5 81.5,270.5C 80.0186,268.043 78.852,265.377 78,262.5C 76.3333,273.167 74.6667,273.167 73,262.5C 71.8361,265.135 70.6694,267.802 69.5,270.5C 67.7448,266.722 67.0781,262.722 67.5,258.5 Z M 88.5,261.5 C 91.7805,262.732 92.1138,264.399 89.5,266.5C 85.8622,265.459 85.5288,263.792 88.5,261.5 Z"/></g>
</svg>
